# xmcd CD database file
#
# Track frame offsets:
#	150
#	36123
#	63540
#	93201
#	123011
#	148489
#
# Disc length: 2301 seconds
#
# Revision: 0
# Processed by: cddbd v1.5.2PL0 Copyright (c) Steve Scherf et al.
# Submitted via: CDex 1.70beta3
#
DISCID=5008fb06
DTITLE=Blue Mitchell - Bring It Home To Me
DYEAR=1966
DGENRE=Jazz
TTITLE0=Bring It Home To Me
TTITLE1=Blues 3 For 1
TTITLE2=Port Rico Rock
TTITLE3=Ginger Bread Boy
TTITLE4=Portrait Of Jennie
TTITLE5=Blue's Theme
EXTD=YEAR: 1966
EXTT0=
EXTT1=
EXTT2=
EXTT3=
EXTT4=
EXTT5=
PLAYORDER=
